# xmcd CD database file
#
# Track frame offsets:
#	150
#	17593
#	41010
#	63638
#	81081
#	104498
#
# Disc length: 1693 seconds
#
# Revision: 2
# Processed by: cddbd v1.5.2PL0 Copyright (c) Steve Scherf et al.
# Submitted via: CDex 1.70beta2
#
DISCID=48069b06
DTITLE=ノースリーブス - 唇 触れず・・・
DYEAR=2011
DGENRE=JPop
TTITLE0=唇 触れず・・・
TTITLE1=錯覚
TTITLE2=誰か教えて(高橋みなみ)
TTITLE3=唇 触れず・・・ -Instrumental-
TTITLE4=錯覚 -Instrumental-
TTITLE5=誰か教えて -Instrumental-
EXTD=YEAR: 2011
EXTT0=
EXTT1=
EXTT2=
EXTT3=
EXTT4=
EXTT5=
PLAYORDER=
